<?xml version="1.0" encoding="utf-8"?>
<!-- Generator: Adobe Illustrator 26.4.1, SVG Export Plug-In . SVG Version: 6.00 Build 0)  -->
<svg version="1.1" id="Outline" xmlns="http://www.w3.org/2000/svg" xmlns:xlink="http://www.w3.org/1999/xlink" x="0px" y="0px"
	 viewBox="0 0 512 512" style="enable-background:new 0 0 512 512;" xml:space="preserve">
<path d="M369.8,178.5L202,10.6c-14.3-14.2-37.3-14.2-51.6,0C136.1,24.9,136,48,150.2,62.3c0.1,0.1,0.1,0.1,0.2,0.2L318.6,230
	c14.3,14.2,14.4,37.4,0.2,51.7c-0.1,0.1-0.1,0.1-0.2,0.2L150.4,449.4c-14.3,14.2-14.4,37.4-0.2,51.7c14.2,14.3,37.4,14.4,51.7,0.2
	l167.8-167.8C412.6,290.7,412.6,221.3,369.8,178.5z"/>
</svg>
