<?xml version="1.0" encoding="utf-8"?>
<!-- Generator: Adobe Illustrator 26.4.1, SVG Export Plug-In . SVG Version: 6.00 Build 0)  -->
<svg version="1.1" id="Outline" xmlns="http://www.w3.org/2000/svg" xmlns:xlink="http://www.w3.org/1999/xlink" x="0px" y="0px"
	 viewBox="0 0 512 512" style="enable-background:new 0 0 512 512;" xml:space="preserve">
<style type="text/css">
	.st0{fill:#FFFFFF;}
</style>
<path class="st0" d="M405.3,85.3h-10.8l-46.6-60.4C335.7,9.3,317,0.1,297.2,0h-82.4c-19.8,0.1-38.5,9.3-50.7,24.9l-46.6,60.4h-10.8
	C47.8,85.4,0.1,133.1,0,192v213.3C0.1,464.2,47.8,511.9,106.7,512h298.7c58.9-0.1,106.6-47.8,106.7-106.7V192
	C511.9,133.1,464.2,85.4,405.3,85.3z M197.9,51c4-5.2,10.3-8.3,16.9-8.3h82.4c6.6,0,12.8,3.1,16.9,8.3l26.5,34.3H171.4L197.9,51z
	 M469.3,405.3c0,35.3-28.7,64-64,64H106.7c-35.3,0-64-28.7-64-64V192c0-35.3,28.7-64,64-64h298.7c35.3,0,64,28.7,64,64V405.3z"/>
<path class="st0" d="M256,170.7c-70.7,0-128,57.3-128,128s57.3,128,128,128s128-57.3,128-128C383.9,228,326.7,170.7,256,170.7z
	 M256,384c-47.1,0-85.3-38.2-85.3-85.3s38.2-85.3,85.3-85.3s85.3,38.2,85.3,85.3S303.1,384,256,384z"/>
</svg>
