<?xml version="1.0" encoding="utf-8"?>
<!-- Generator: Adobe Illustrator 26.4.1, SVG Export Plug-In . SVG Version: 6.00 Build 0)  -->
<svg version="1.1" id="_Слой_2" xmlns="http://www.w3.org/2000/svg" xmlns:xlink="http://www.w3.org/1999/xlink" x="0px"
	 y="0px" viewBox="0 0 543.5 248.4" style="enable-background:new 0 0 543.5 248.4;" xml:space="preserve">
<style type="text/css">
	.st0{fill:#FFFFFF;}
</style>
<g id="_Слой_1-2">
	<g>
		<path class="st0" d="M177.9,118.8L147.9,131l-30.5-64.8l-31,82.2L35.6,80.7l-7.5,55.4l-12.7-3.3L28.1,25.3L91.5,102L131,0
			L177.9,118.8L177.9,118.8z"/>
		<path class="st0" d="M284.9,48c0.9,3.4,1.3,6.8,1.3,10.4c0,9.3-2.7,18.2-8.1,26.7s-12.5,14.7-21.2,18.6
			c-5.5,2.5-11.1,3.8-16.6,3.8c-7.5,0-14.1-2.2-20-6.8s-9.8-10.7-11.8-18.5c-0.9-3.3-1.3-6.6-1.3-10.1c0-9.1,2.7-17.9,8.1-26.4
			c5.4-8.5,12.5-14.7,21.2-18.6c5.5-2.5,11.1-3.8,16.6-3.8c7.6,0,14.3,2.2,20,6.6S282.9,40.4,284.9,48L284.9,48z M265.9,51.9
			c0-5.1-1.9-9.5-5.5-13.1s-8.2-5.5-13.5-5.5s-9.9,1.8-13.6,5.5s-5.6,8-5.6,13.1s1.9,9.9,5.5,13.6c3.7,3.8,8.2,5.6,13.5,5.6
			s10-1.9,13.7-5.6C264,61.8,265.9,57.2,265.9,51.9z"/>
		<path class="st0" d="M373.7,48c0.9,3.4,1.3,6.8,1.3,10.4c0,9.3-2.7,18.2-8.1,26.7s-12.5,14.7-21.2,18.6
			c-5.5,2.5-11.1,3.8-16.6,3.8c-7.5,0-14.1-2.2-20-6.8s-9.8-10.7-11.8-18.5c-0.9-3.3-1.3-6.6-1.3-10.1c0-9.1,2.7-17.9,8.1-26.4
			c5.4-8.5,12.5-14.7,21.2-18.6c5.5-2.5,11.1-3.8,16.6-3.8c7.6,0,14.3,2.2,20,6.6S371.7,40.4,373.7,48L373.7,48z M354.7,51.9
			c0-5.1-1.9-9.5-5.5-13.1s-8.2-5.5-13.5-5.5s-9.9,1.8-13.6,5.5s-5.6,8-5.6,13.1s1.9,9.9,5.5,13.6c3.7,3.8,8.2,5.6,13.5,5.6
			s10-1.9,13.7-5.6C352.8,61.8,354.7,57.2,354.7,51.9L354.7,51.9z"/>
		<path class="st0" d="M438.6,133.3l-15,2.9l-7.9-88.3h-0.1l-0.5-6.3c21.7-6,41.2-9.1,58.7-9.1c18.5,0,33.1,3.3,43.8,10
			c9.9,6.2,14.8,14.2,14.8,24c0,12.5-7.7,24.7-23,36.5c-17.1,13.2-40.7,23.2-70.8,30.1L438.6,133.3L438.6,133.3z M435.6,107.8
			C478.5,84.1,500,67.5,500,58c0-8.2-14.2-12.2-42.6-12.2c-8.4,0-18.1,0.4-29.1,1.1L435.6,107.8L435.6,107.8z"/>
		<path class="st0" d="M90.4,172.7l-32.7,10.1l15,59.9l-26.5,3.7l-6.8-60.2l-35,3.4L0,179.5l87.4-14L90.4,172.7L90.4,172.7z"/>
		<path class="st0" d="M172.8,235.2l-10.8,12.9l-44.5-28.9c-2.1,1.2-5.9,2.9-11.5,4.8l-1.1,10.1h-8.5l5.1-60.5l11.5-0.3
			c26.5,1.7,39.8,6.3,39.8,13.8c0,2.9-2.1,6.7-6.3,11.1c-1.3,1.4-5.6,5.3-12.8,11.7L172.8,235.2L172.8,235.2z M112,180.8l-4.1,29.1
			c15-9.4,22.5-16.8,22.5-22.3C130.3,183.1,124.2,180.8,112,180.8z"/>
		<path class="st0" d="M248.3,227.5l-19,12.2L216,210.9l-16.9-1.1l-14.3,34l-6.1-2.4l26.5-70.6l15,2.7L248.3,227.5L248.3,227.5z
			 M213.3,203l-7.2-16.6l-5.4,16.4L213.3,203L213.3,203z"/>
		<path class="st0" d="M340.3,235.7c-15.7,4.3-29.8,6.5-42.5,6.5c-13.8,0-24.7-2.5-32.6-7.4c-7.4-4.6-11-10.5-11-17.6
			c0-8.9,5.5-17.3,16.6-25c12.5-8.7,29.5-14.5,51.1-17.6l2.4,15.7c-30.8,15-46.2,26.2-46.2,33.5c0,6,10.7,9,32.1,9
			c8.3,0,18.2-0.5,29.7-1.4L340.3,235.7L340.3,235.7z"/>
		<path class="st0" d="M418.9,222.9l-4,16.4l-45.2-10.5l4.4,16.9l-10.9,2.8l-16.9-67.7l13.6-0.7l5.4,21.1l29.5-38.7l20.8,9.2
			l-43.8,41.5L418.9,222.9L418.9,222.9z"/>
		<path class="st0" d="M461.1,217.7l-24.1,2l2.1,12.2l19-1.3l1.4,7.8l-25.1,4.7l-9.5-66.6l36.3-4.7v12.5l-26.8,3.1l1.3,11.2
			l22.5-1.7L461.1,217.7z"/>
		<path class="st0" d="M543.5,235.2l-10.8,12.9l-44.5-28.9c-2.1,1.2-5.9,2.9-11.5,4.8l-1.1,10.1H467l5.1-60.5l11.5-0.3
			c26.5,1.7,39.8,6.3,39.8,13.8c0,2.9-2.1,6.7-6.3,11.1c-1.3,1.4-5.6,5.3-12.8,11.7L543.5,235.2L543.5,235.2z M482.7,180.8
			l-4.1,29.1c15-9.4,22.5-16.8,22.5-22.3C501,183.1,494.9,180.8,482.7,180.8L482.7,180.8z"/>
		<path class="st0" d="M371.3,98c1-0.8,6.6,4.5,10.8,10.6c1.1,1.7,4.1,6.2,5.1,12.6c0.5,2.8,0.4,5.1-0.3,5.3
			c-0.8,0.2-1.9-1.8-5.7-4.4c-0.4-0.3-0.7-0.5-0.9-0.6c-0.8,0.5-2.1,1.3-3.8,2.3c-12.5,7.8-22,13.6-22.6,13.9
			c-23.4,12.6-55.5,15.2-55.5,15.2s-52.4,4.3-96.8-25.8c-2.4-1.6-3.8-3.7-3.8-3.7c-0.2-0.2-0.5-0.8-0.7-1.1c0.9,0.5,2.5,1.3,4.5,2.3
			c0,0,2.2,1.1,4.3,2.1c46.4,21.4,87.9,16.9,87.9,16.9c11.2-1.2,19.4-3.5,26.1-5.4c0,0,24.7-7,51.7-26.5c0.3-0.2,0.7-0.5,1.1-1.1
			C375.9,106.5,370.1,98.8,371.3,98L371.3,98z"/>
	</g>
</g>
</svg>
