<?xml version="1.0" encoding="utf-8"?>
<!-- Generator: Adobe Illustrator 26.4.1, SVG Export Plug-In . SVG Version: 6.00 Build 0)  -->
<svg version="1.1" id="Слой_1" xmlns="http://www.w3.org/2000/svg" xmlns:xlink="http://www.w3.org/1999/xlink" x="0px" y="0px"
	 viewBox="0 0 13.3 13.3" style="enable-background:new 0 0 13.3 13.3;" xml:space="preserve">
<style type="text/css">
	.st0{fill:#FF4C4C;}
</style>
<path class="st0" d="M0,6.7c0,1.8,0.7,3.5,2,4.7c1.2,1.2,2.9,2,4.7,2c8.8-0.3,8.8-13,0-13.3C4.9,0,3.2,0.7,2,1.9
	C0.7,3.2,0,4.9,0,6.7z M5.8,10c0-0.2,0.1-0.4,0.2-0.6c0.2-0.2,0.4-0.2,0.6-0.2c0.2,0,0.4,0.1,0.6,0.2C7.4,9.6,7.5,9.8,7.5,10
	c0,0.2-0.1,0.4-0.2,0.6c-0.2,0.2-0.4,0.2-0.6,0.2c-0.2,0-0.4-0.1-0.6-0.2C5.9,10.4,5.8,10.2,5.8,10z M5.8,3.3c0-0.2,0.1-0.4,0.2-0.6
	c0.2-0.2,0.4-0.2,0.6-0.2c0.2,0,0.4,0.1,0.6,0.2s0.2,0.4,0.2,0.6v3.3c0,0.2-0.1,0.4-0.2,0.6C7.1,7.4,6.9,7.5,6.7,7.5
	c-0.2,0-0.4-0.1-0.6-0.2C5.9,7.1,5.8,6.9,5.8,6.7V3.3z"/>
</svg>
