<svg width="34" height="34" viewBox="0 0 34 34" fill="none" xmlns="http://www.w3.org/2000/svg">
<path d="M18.0068 33H16.0077C15.9174 32.9814 15.8275 32.9591 15.7364 32.9455C14.976 32.8321 14.2052 32.7674 13.4566 32.6013C4.57323 30.6271 -0.899352 21.3975 1.61127 12.6453C3.99617 4.33103 12.3652 -0.552812 20.801 1.4469C26.9063 2.89412 31.7218 8.04432 32.7576 14.241C32.8553 14.8244 32.92 15.4132 33 15.9995V17.9996C32.9823 18.08 32.9596 18.16 32.9477 18.2412C32.8388 18.9817 32.77 19.7301 32.6191 20.4615C31.3364 26.6656 26.0353 31.7408 19.7936 32.7534C19.2004 32.8499 18.6024 32.9183 18.0068 33ZM31.1258 17.0121C31.1373 9.21529 24.8227 2.88588 17.0204 2.87433C9.22845 2.86237 2.90017 9.18148 2.88863 16.9857C2.87709 24.7809 9.19383 31.1128 16.9936 31.1248C24.786 31.1367 31.1143 24.8172 31.1254 17.0121H31.1258Z" fill="black" stroke="black"/>
<path d="M10.0108 25C9.88167 22.7655 10.9012 20.965 13.4179 19.8122C15.8748 18.6864 18.4077 18.7389 20.822 19.9205C23.1106 21.0408 24.1842 22.9434 23.9742 25H10.0108ZM22.2876 23.777C22.156 22.3326 19.8855 24.1112 16.5625 24.1429C15.015 24.1575 16.7349 22.9044 15.6875 23.777C14.9598 24.3835 11.8432 22.9428 11.6826 23.777H22.2876Z" fill="black" stroke="black"/>
<path d="M11.519 9.11359C12.9059 9.12315 14.0092 10.2462 13.9999 11.6385C13.9907 13.017 12.8522 14.1321 11.4689 14.1176C10.0908 14.1031 8.98597 12.9655 9.00013 11.5759C9.0143 10.206 10.1413 9.10403 11.519 9.11359ZM10.4981 11.6174C10.4998 12.1705 10.2411 13.019 10.7927 13.02C11.344 13.021 9.9903 12.1903 9.99326 11.6385C9.99656 11.0702 11.3618 10.617 10.7927 10.6217C10.2365 10.6259 10.4968 11.059 10.4981 11.6174Z" fill="black" stroke="black" stroke-width="0.5"/>
<path d="M21.7551 9.1136C23.1424 9.11855 24.2503 10.2383 24.2453 11.6297C24.2401 13.0092 23.1055 14.1283 21.7228 14.118C20.3444 14.1078 19.2355 12.9739 19.2454 11.5848C19.255 10.2142 20.3777 9.10866 21.7551 9.1136ZM22.747 11.6099C22.7453 11.0538 22.3044 10.6137 21.7475 10.6128C21.1887 10.6114 23.4283 11.0732 23.4246 11.6297C23.421 12.195 21.1923 12.6238 21.7544 12.6189C22.3051 12.6139 22.7486 12.1633 22.747 11.6099Z" fill="black" stroke="black" stroke-width="0.5"/>
</svg>
